HIERARCHY
ROOT root     
{
	OFFSET 0.0000 0.0000 0.0000
	CHANNELS 6 Xposition Yposition Zposition Zrotation Yrotation Xrotation
	JOINT pelvis   
	{
		OFFSET 0.0000 0.0000 0.0000
		CHANNELS 3 Zrotation Yrotation Xrotation
		JOINT thorax   
		{
			OFFSET 0.0000 23.0750 -5.0000
			CHANNELS 3 Zrotation Yrotation Xrotation
			JOINT rclavicle
			{
				OFFSET 0.0000 28.0009 0.0000
				CHANNELS 3 Zrotation Yrotation Xrotation
				JOINT rhumerus 
				{
					OFFSET -18.5725 5.5939 0.0000
					CHANNELS 3 Zrotation Yrotation Xrotation
					JOINT rradius  
					{
						OFFSET -24.8459 0.0000 0.0000
						CHANNELS 3 Zrotation Yrotation Xrotation
						JOINT rhand    
						{
							OFFSET -24.5477 0.0000 0.0000
							CHANNELS 3 Zrotation Yrotation Xrotation
							End Site
							{
								OFFSET -8.1826 0.0000 0.0000
							}
						}
					}
				}
			}
			JOINT lclavicle
			{
				OFFSET 0.0000 28.0009 0.0000
				CHANNELS 3 Zrotation Yrotation Xrotation
				JOINT lhumerus 
				{
					OFFSET 18.5725 5.5939 0.0000
					CHANNELS 3 Zrotation Yrotation Xrotation
					JOINT lradius  
					{
						OFFSET 24.8459 0.0000 0.0000
						CHANNELS 3 Zrotation Yrotation Xrotation
						JOINT lhand    
						{
							OFFSET 24.5477 0.0000 0.0000
							CHANNELS 3 Zrotation Yrotation Xrotation
							End Site
							{
								OFFSET 8.1826 0.0000 0.0000
							}
						}
					}
				}
			}
			JOINT head     
			{
				OFFSET 0.0000 35.2030 0.0000
				CHANNELS 3 Zrotation Yrotation Xrotation
				End Site
				{
					OFFSET 0.0000 11.7343 0.0000
				}
			}
		}
		JOINT rfemur   
		{
			OFFSET -8.2817 0.0000 0.0000
			CHANNELS 3 Zrotation Yrotation Xrotation
			JOINT rtibia   
			{
				OFFSET 0.0000 -43.3627 0.0000
				CHANNELS 3 Zrotation Yrotation Xrotation
				JOINT rfoot    
				{
					OFFSET 0.0000 -38.2947 0.0000
					CHANNELS 3 Zrotation Yrotation Xrotation
					JOINT rtoes    
					{
						OFFSET 0.0000 0.0000 16.6054
						CHANNELS 3 Zrotation Yrotation Xrotation
						End Site
						{
							OFFSET 0.0000 0.0000 5.5351
						}
					}
				}
			}
		}
		JOINT lfemur   
		{
			OFFSET 8.2817 0.0000 0.0000
			CHANNELS 3 Zrotation Yrotation Xrotation
			JOINT ltibia   
			{
				OFFSET 0.0000 -43.3627 0.0000
				CHANNELS 3 Zrotation Yrotation Xrotation
				JOINT lfoot    
				{
					OFFSET 0.0000 -38.2947 0.0000
					CHANNELS 3 Zrotation Yrotation Xrotation
					JOINT ltoes    
					{
						OFFSET 0.0000 0.0000 16.6054
						CHANNELS 3 Zrotation Yrotation Xrotation
						End Site
						{
							OFFSET 0.0000 0.0000 5.5351
						}
					}
				}
			}
		}
	}
}
MOTION
Frames: 13
Frame Time: .0333333
-21.858 73.521 4.7727 -147.822 -84.7734 177.509 0 -0 0 -1.5537 8.84795 15.1631 9.5598 -13.3345 -4.31203e-05 39.1235 -5.16412 3.87316 180 65.6623 180 0.980488 4.02492 0.0344995 -10.9046 27.8496 -7.27255e-05 -57.8305 26.9228 18.724 -1.65892e-06 -83.0713 1.87275e-06 -14.0637 -2.24551 0.277012 5.97502 -7.03014 -16.3913 1.5783 -15.7597 -11.5243 -0 -0 44.919 -1.20691e-06 4.17262 -1.72045 -0.1255 -5.96105e-07 -79.8812 -9.88668 6.50759 -79.4265 -0 -0 47.0983 2.27428e-06 6.88433 3.15642 0.380898 -1.5335e-06 -29.961 
-23.571 73.021 4.6369 -147.821 -84.2922 177.134 0 -0 0 -2.2322 9.129 14.8744 9.88846 -13.2105 2.45234e-05 39.675 -5.53323 3.92078 -180 65.5715 -180 1.28102 4.10963 0.0460013 -11.1635 27.7801 3.79277e-05 -57.8296 26.69 18.0137 -2.09036e-06 -83.2582 2.35221e-06 -13.9498 -2.30904 0.282504 6.25253 -6.92679 -17.1518 1.05228 -15.2834 -10.3991 -0 -0 45.5946 8.43583e-09 4.48831 -0.112201 -0.00879988 -7.89719e-08 -80.775 -9.61667 7.08012 -79.9926 -0 -0 50.5366 2.93694e-06 6.59284 3.49404 0.403593 3.04859e-07 -27.2669 
-25.259 72.539 4.5143 -148.353 -83.859 177.283 0 -0 0 -2.9441 9.37227 14.651 10.2684 -13.0407 -3.17582e-06 40.2925 -5.88381 3.9287 180 65.5213 180 1.55565 4.18669 0.0569019 -11.5379 27.6111 -0.000125944 -57.7727 26.2712 17.2523 2.39496e-06 -83.3846 -2.13313e-06 -13.7804 -2.34461 0.283402 6.49441 -6.81554 -17.931 0.511755 -14.7234 -9.46604 -0 -0 46.5415 1.4866e-06 4.60667 1.62445 0.1309 3.91239e-07 -81.3005 -9.41016 7.6073 -80.4282 -0 -0 53.8453 -4.11441e-06 6.37006 3.48954 0.389289 -1.27574e-06 -24.5752 
-26.919 72.082 4.409 -149.385 -83.4778 177.923 0 -0 0 -3.69862 9.55773 14.4917 10.6961 -12.8158 -3.85481e-05 40.9984 -6.20324 3.90558 -180 65.5301 -180 1.81406 4.26393 0.0674978 -12.0429 27.3358 -4.60338e-05 -57.6379 25.6701 16.4355 0 -83.4601 0 -13.5412 -2.34498 0.278405 6.69222 -6.67923 -18.6955 -0.0360718 -14.0903 -8.7544 -0 -0 47.7792 4.36613e-06 4.51759 3.46717 0.273805 6.18794e-07 -81.3037 -9.24911 8.05108 -80.7041 -0 -0 56.9629 -1.07733e-06 6.27311 3.10937 0.341601 -3.15562e-07 -22.0913 
-28.544 71.659 4.3214 -150.787 -83.1418 178.936 0 -0 0 -4.48102 9.69001 14.3912 11.162 -12.5531 6.65282e-05 41.8092 -6.46659 3.86491 180 65.632 180 2.06377 4.35197 0.0783978 -12.6616 26.9654 0.000196803 -57.4337 24.8668 15.5868 -1.07683e-06 -83.4576 1.66091e-06 -13.242 -2.30607 0.267694 6.82986 -6.51679 -19.4092 -0.565758 -13.3757 -8.28261 -0 -0 49.3007 4.44818e-06 4.19346 5.33249 0.390401 3.0565e-06 -80.6698 -9.11912 8.39805 -80.8113 -0 -0 59.8482 5.25951e-06 6.33307 2.34362 0.260003 8.39475e-07 -19.9631 
-30.133 71.273 4.2516 -152.467 -82.8473 -179.767 0 -0 0 -5.28092 9.76672 14.3433 11.6514 -12.2619 6.05978e-05 42.7453 -6.65722 3.81882 -180 65.8534 -180 2.31454 4.46047 0.090101 -13.3831 26.5096 -0.000108043 -57.1588 23.8595 14.7206 0 -83.3485 0 -12.8892 -2.22239 0.251087 6.89757 -6.31992 -20.039 -1.0605 -12.5894 -8.05985 -0 -0 51.0948 -6.3965e-06 3.63196 7.13784 0.4519 5.21392e-08 -79.3182 -9.00157 8.63437 -80.7452 -0 -0 62.4849 -1.1024e-06 6.56994 1.21199 0.139599 -1.11782e-06 -18.2514 
-31.685 70.93 4.2022 -154.465 -82.5815 -178.146 0 -0 0 -6.109 9.77111 14.3391 12.1491 -11.9338 3.47266e-05 43.8305 -6.77008 3.77959 180 66.2248 180 2.57461 4.59178 0.103199 -14.2047 25.9637 -0.000134412 -56.7937 22.6827 13.8277 -1.19033e-06 -83.1661 1.34152e-06 -12.4754 -2.08873 0.228303 6.89638 -6.06738 -20.5535 -1.53303 -11.7713 -8.09147 -0 -0 53.1622 -1.5354e-06 2.8701 8.79752 0.439298 -4.93397e-06 -77.0759 -8.89348 8.74446 -80.4981 -0 -0 64.855 -8.63787e-08 6.99228 -0.234798 -0.0287991 4.11613e-08 -16.9767 
-33.198 70.63 4.1668 -156.53 -82.3409 -176.442 0 -0 0 -6.9237 9.72525 14.3752 12.6357 -11.5962 5.55422e-06 45.074 -6.78781 3.75684 -180 66.7765 -180 2.84621 4.75533 0.118201 -15.0788 25.3616 -0.00010371 -56.3706 21.3059 12.9511 1.81691e-06 -82.839 -1.60303e-06 -12.0327 -1.9054 0.200806 6.81443 -5.77067 -20.9306 -1.94747 -10.9153 -8.36378 -0 -0 55.4578 -7.8554e-06 1.89618 10.1988 0.335908 5.49489e-06 -74.1543 -8.7696 8.74648 -80.084 -0 -0 66.9659 2.25772e-06 7.57948 -1.92693 -0.256409 -7.81629e-08 -16.14 
-34.674 70.374 4.1472 -158.75 -82.1092 -174.574 0 -0 0 -7.74169 9.60951 14.4353 13.0949 -11.2348 5.89915e-05 46.4869 -6.72323 3.75843 -180 67.5265 -180 3.12657 4.94135 0.134897 -16.0079 24.6893 -0.000175194 -55.8761 19.7986 12.0566 -3.01967e-06 -82.4309 3.44749e-06 -11.5522 -1.67201 0.169195 6.66206 -5.40776 -21.152 -2.32989 -10.0725 -8.87462 -0 -0 57.9714 -2.23219e-07 0.767 11.2564 0.149701 -5.19295e-07 -70.4306 -8.63985 8.6385 -79.514 -0 -0 68.817 -1.301e-06 8.31174 -3.76703 -0.5499 2.44724e-06 -15.7303 
-36.11 70.162 4.1359 -160.891 -81.8885 -172.762 0 -0 0 -8.52461 9.44504 14.515 13.5106 -10.8723 2.28776e-05 48.0624 -6.57259 3.78914 180 68.4954 180 3.40594 5.1515 0.153297 -16.9425 23.9831 -0.00011776 -55.3427 18.1381 11.177 0 -81.8855 0 -11.069 -1.39554 0.1352 6.43552 -4.99391 -21.21 -2.65353 -9.24588 -9.60448 -0 -0 60.6539 9.14021e-07 -0.511096 11.9024 -0.105398 1.04989e-07 -66.2755 -8.48783 8.45167 -78.8111 -0 -0 70.4248 -7.6043e-06 9.14668 -5.65846 -0.909503 -7.9978e-06 -15.7214 
-37.508 69.99 4.13 -162.914 -81.6499 -171.054 0 -0 0 -9.26803 9.22964 14.6016 13.8717 -10.5089 1.45497e-05 49.7876 -6.35097 3.85257 180 69.6947 180 3.66694 5.37517 0.172201 -17.8619 23.2534 -0.000122094 -54.7868 16.3565 10.3048 2.12303e-06 -81.2173 -1.82028e-06 -10.5908 -1.0835 0.100399 6.14436 -4.52689 -21.1027 -2.92302 -8.46054 -10.5442 -0 -0 63.4746 1.19059e-06 -1.90016 12.0999 -0.398497 2.52583e-06 -61.8736 -8.31939 8.20748 -78.0051 -0 -0 71.8103 3.42359e-06 10.0407 -7.50375 -1.32463 1.2353e-07 -16.0586 
-38.865 69.858 4.1251 -164.731 -81.3999 -169.529 0 -0 0 -9.96139 8.96711 14.6826 14.1715 -10.1494 -2.43958e-05 51.6384 -6.0741 3.95188 180 71.1191 180 3.88584 5.60219 0.190202 -18.7389 22.5146 9.51491e-05 -54.2281 14.4769 9.43611 -1.17412e-06 -80.4443 1.38831e-06 -10.1321 -0.748694 0.0664006 5.79728 -4.01304 -20.8341 -3.13351 -7.72994 -11.6817 -0 -0 66.3949 -8.79803e-06 -3.36832 11.8416 -0.691897 5.16086e-06 -57.4408 -8.13958 7.9362 -77.1265 -0 -0 72.9973 -2.06257e-06 10.9446 -9.22441 -1.77547 -8.39773e-06 -16.6647 
-40.182 69.762 4.1169 -166.297 -81.1398 -168.227 0 -0 0 -10.5961 8.66011 14.7473 14.405 -9.79681 2.04825e-05 53.5803 -5.76205 4.08949 180 72.7668 180 4.03487 5.8206 0.205205 -19.5552 21.767 1.21538e-06 -53.6919 12.5398 8.55335 0 -79.5784 -0 -9.70563 -0.406497 0.0344998 5.40307 -3.46037 -20.4156 -3.28005 -7.06244 -13.0089 -0 -0 69.3788 -6.94523e-07 -4.87989 11.1407 -0.945091 -5.21804e-06 -53.0888 -7.95678 7.67032 -76.2045 -0 -0 74.0106 -4.58612e-06 11.8106 -10.7678 -2.23713 5.88611e-06 -17.4367 
